<?xml version="1.0" encoding="UTF-8"?>
<!--Generator: Apple Native CoreSVG 175-->
<!DOCTYPE svg
PUBLIC "-//W3C//DTD SVG 1.1//EN"
       "http://www.w3.org/Graphics/SVG/1.1/DTD/svg11.dtd">
<svg version="1.1" xmlns="http://www.w3.org/2000/svg" xmlns:xlink="http://www.w3.org/1999/xlink" width="3300" height="2200">
 <!--glyph: "uni10004D.medium", point size: 100.0, font version: "17.0d12e1", template writer version: "65.1"-->
 <g id="Notes">
  <rect height="2200" id="artboard" style="fill:white;opacity:1" width="3300" x="0" y="0"/>
  <line style="fill:none;stroke:black;opacity:1;stroke-width:0.5;" x1="263" x2="3036" y1="292" y2="292"/>
  <text style="stroke:none;fill:black;font-family:sans-serif;font-size:13;font-weight:bold;" transform="matrix(1 0 0 1 263 322)">Weight/Scale Variations</text>
  <text style="stroke:none;fill:black;font-family:sans-serif;font-size:13;text-anchor:middle;" transform="matrix(1 0 0 1 559.711 322)">Ultralight</text>
  <text style="stroke:none;fill:black;font-family:sans-serif;font-size:13;text-anchor:middle;" transform="matrix(1 0 0 1 856.422 322)">Thin</text>
  <text style="stroke:none;fill:black;font-family:sans-serif;font-size:13;text-anchor:middle;" transform="matrix(1 0 0 1 1153.13 322)">Light</text>
  <text style="stroke:none;fill:black;font-family:sans-serif;font-size:13;text-anchor:middle;" transform="matrix(1 0 0 1 1449.84 322)">Regular</text>
  <text style="stroke:none;fill:black;font-family:sans-serif;font-size:13;text-anchor:middle;" transform="matrix(1 0 0 1 1746.56 322)">Medium</text>
  <text style="stroke:none;fill:black;font-family:sans-serif;font-size:13;text-anchor:middle;" transform="matrix(1 0 0 1 2043.27 322)">Semibold</text>
  <text style="stroke:none;fill:black;font-family:sans-serif;font-size:13;text-anchor:middle;" transform="matrix(1 0 0 1 2339.98 322)">Bold</text>
  <text style="stroke:none;fill:black;font-family:sans-serif;font-size:13;text-anchor:middle;" transform="matrix(1 0 0 1 2636.69 322)">Heavy</text>
  <text style="stroke:none;fill:black;font-family:sans-serif;font-size:13;text-anchor:middle;" transform="matrix(1 0 0 1 2933.4 322)">Black</text>
  <line style="fill:none;stroke:black;opacity:1;stroke-width:0.5;" x1="263" x2="3036" y1="1903" y2="1903"/>
  <g transform="matrix(1 0 0 1 263 1933)">
   <path d="M9.24805 0.830078Q10.8691 0.830078 12.2949 0.214844Q13.7207-0.400391 14.8096-1.49414Q15.8984-2.58789 16.5186-4.01367Q17.1387-5.43945 17.1387-7.05078Q17.1387-8.66211 16.5186-10.0879Q15.8984-11.5137 14.8047-12.6074Q13.7109-13.7012 12.2852-14.3164Q10.8594-14.9316 9.23828-14.9316Q7.62695-14.9316 6.20117-14.3164Q4.77539-13.7012 3.69141-12.6074Q2.60742-11.5137 1.9873-10.0879Q1.36719-8.66211 1.36719-7.05078Q1.36719-5.43945 1.9873-4.01367Q2.60742-2.58789 3.69629-1.49414Q4.78516-0.400391 6.21094 0.214844Q7.63672 0.830078 9.24805 0.830078ZM9.24805-0.654297Q7.91992-0.654297 6.7627-1.14746Q5.60547-1.64062 4.73145-2.51953Q3.85742-3.39844 3.36426-4.56055Q2.87109-5.72266 2.87109-7.05078Q2.87109-8.37891 3.35938-9.54102Q3.84766-10.7031 4.72168-11.582Q5.5957-12.4609 6.75293-12.9541Q7.91016-13.4473 9.23828-13.4473Q10.5762-13.4473 11.7334-12.9541Q12.8906-12.4609 13.7695-11.582Q14.6484-10.7031 15.1465-9.54102Q15.6445-8.37891 15.6445-7.05078Q15.6445-5.72266 15.1514-4.56055Q14.6582-3.39844 13.7842-2.51953Q12.9102-1.64062 11.748-1.14746Q10.5859-0.654297 9.24805-0.654297ZM5.6543-7.05078Q5.6543-6.72852 5.85938-6.52832Q6.06445-6.32812 6.40625-6.32812L8.51562-6.32812L8.51562-4.20898Q8.51562-3.88672 8.71094-3.67676Q8.90625-3.4668 9.23828-3.4668Q9.56055-3.4668 9.77051-3.67676Q9.98047-3.88672 9.98047-4.20898L9.98047-6.32812L12.0898-6.32812Q12.4219-6.32812 12.627-6.52832Q12.832-6.72852 12.832-7.05078Q12.832-7.38281 12.627-7.58789Q12.4219-7.79297 12.0898-7.79297L9.98047-7.79297L9.98047-9.90234Q9.98047-10.2344 9.77051-10.4443Q9.56055-10.6543 9.23828-10.6543Q8.90625-10.6543 8.71094-10.4443Q8.51562-10.2344 8.51562-9.90234L8.51562-7.79297L6.40625-7.79297Q6.06445-7.79297 5.85938-7.58789Q5.6543-7.38281 5.6543-7.05078Z"/>
  </g>
  <g transform="matrix(1 0 0 1 281.867 1933)">
   <path d="M11.709 2.91016Q13.75 2.91016 15.5518 2.12891Q17.3535 1.34766 18.7305-0.0292969Q20.1074-1.40625 20.8887-3.20801Q21.6699-5.00977 21.6699-7.05078Q21.6699-9.0918 20.8887-10.8936Q20.1074-12.6953 18.7305-14.0723Q17.3535-15.4492 15.5469-16.2305Q13.7402-17.0117 11.6992-17.0117Q9.6582-17.0117 7.85645-16.2305Q6.05469-15.4492 4.68262-14.0723Q3.31055-12.6953 2.5293-10.8936Q1.74805-9.0918 1.74805-7.05078Q1.74805-5.00977 2.5293-3.20801Q3.31055-1.40625 4.6875-0.0292969Q6.06445 1.34766 7.86621 2.12891Q9.66797 2.91016 11.709 2.91016ZM11.709 1.25Q9.98047 1.25 8.47656 0.605469Q6.97266-0.0390625 5.83496-1.17676Q4.69727-2.31445 4.05762-3.81836Q3.41797-5.32227 3.41797-7.05078Q3.41797-8.7793 4.05762-10.2832Q4.69727-11.7871 5.83008-12.9297Q6.96289-14.0723 8.4668-14.7119Q9.9707-15.3516 11.6992-15.3516Q13.4277-15.3516 14.9316-14.7119Q16.4355-14.0723 17.5781-12.9297Q18.7207-11.7871 19.3652-10.2832Q20.0098-8.7793 20.0098-7.05078Q20.0098-5.32227 19.3701-3.81836Q18.7305-2.31445 17.5928-1.17676Q16.4551-0.0390625 14.9463 0.605469Q13.4375 1.25 11.709 1.25ZM7.17773-7.05078Q7.17773-6.69922 7.41211-6.47461Q7.64648-6.25 8.01758-6.25L10.8887-6.25L10.8887-3.36914Q10.8887-2.99805 11.1133-2.76855Q11.3379-2.53906 11.6895-2.53906Q12.0605-2.53906 12.29-2.76855Q12.5195-2.99805 12.5195-3.36914L12.5195-6.25L15.4004-6.25Q15.7715-6.25 16.001-6.47461Q16.2305-6.69922 16.2305-7.05078Q16.2305-7.42188 16.001-7.65137Q15.7715-7.88086 15.4004-7.88086L12.5195-7.88086L12.5195-10.752Q12.5195-11.1328 12.29-11.3623Q12.0605-11.5918 11.6895-11.5918Q11.3379-11.5918 11.1133-11.3574Q10.8887-11.123 10.8887-10.752L10.8887-7.88086L8.01758-7.88086Q7.63672-7.88086 7.40723-7.65137Q7.17773-7.42188 7.17773-7.05078Z"/>
  </g>
  <g transform="matrix(1 0 0 1 305.646 1933)">
   <path d="M14.9707 5.66406Q17.0605 5.66406 18.96 5.01465Q20.8594 4.36523 22.4512 3.19336Q24.043 2.02148 25.2197 0.429688Q26.3965-1.16211 27.0459-3.06641Q27.6953-4.9707 27.6953-7.05078Q27.6953-9.14062 27.0459-11.04Q26.3965-12.9395 25.2197-14.5312Q24.043-16.123 22.4512-17.2998Q20.8594-18.4766 18.9551-19.126Q17.0508-19.7754 14.9609-19.7754Q12.8711-19.7754 10.9717-19.126Q9.07227-18.4766 7.48535-17.2998Q5.89844-16.123 4.72168-14.5312Q3.54492-12.9395 2.90039-11.04Q2.25586-9.14062 2.25586-7.05078Q2.25586-4.9707 2.90527-3.06641Q3.55469-1.16211 4.72656 0.429688Q5.89844 2.02148 7.49023 3.19336Q9.08203 4.36523 10.9814 5.01465Q12.8809 5.66406 14.9707 5.66406ZM14.9707 3.84766Q13.1641 3.84766 11.5283 3.2959Q9.89258 2.74414 8.53516 1.74805Q7.17773 0.751953 6.17676-0.610352Q5.17578-1.97266 4.62891-3.6084Q4.08203-5.24414 4.08203-7.05078Q4.08203-8.86719 4.62891-10.5029Q5.17578-12.1387 6.17188-13.501Q7.16797-14.8633 8.52539-15.8594Q9.88281-16.8555 11.5186-17.4023Q13.1543-17.9492 14.9609-17.9492Q16.7773-17.9492 18.4131-17.4023Q20.0488-16.8555 21.4111-15.8594Q22.7734-14.8633 23.7695-13.501Q24.7656-12.1387 25.3174-10.5029Q25.8691-8.86719 25.8691-7.05078Q25.8789-5.24414 25.332-3.6084Q24.7852-1.97266 23.7842-0.610352Q22.7832 0.751953 21.4209 1.74805Q20.0586 2.74414 18.4229 3.2959Q16.7871 3.84766 14.9707 3.84766ZM9.19922-7.05078Q9.19922-6.66992 9.45801-6.4209Q9.7168-6.17188 10.1172-6.17188L14.0625-6.17188L14.0625-2.2168Q14.0625-1.81641 14.3115-1.55762Q14.5605-1.29883 14.9512-1.29883Q15.3516-1.29883 15.6104-1.55273Q15.8691-1.80664 15.8691-2.2168L15.8691-6.17188L19.8242-6.17188Q20.2246-6.17188 20.4785-6.4209Q20.7324-6.66992 20.7324-7.05078Q20.7324-7.46094 20.4785-7.71484Q20.2246-7.96875 19.8242-7.96875L15.8691-7.96875L15.8691-11.9141Q15.8691-12.3242 15.6104-12.583Q15.3516-12.8418 14.9512-12.8418Q14.5605-12.8418 14.3115-12.583Q14.0625-12.3242 14.0625-11.9141L14.0625-7.96875L10.1172-7.96875Q9.70703-7.96875 9.45312-7.71484Q9.19922-7.46094 9.19922-7.05078Z"/>
  </g>
  <text style="stroke:none;fill:black;font-family:sans-serif;font-size:13;font-weight:bold;" transform="matrix(1 0 0 1 263 1953)">Design Variations</text>
  <text style="stroke:none;fill:black;font-family:sans-serif;font-size:13;" transform="matrix(1 0 0 1 263 1971)">Symbols are supported in up to nine weights and three scales.</text>
  <text style="stroke:none;fill:black;font-family:sans-serif;font-size:13;" transform="matrix(1 0 0 1 263 1989)">For optimal layout with text and other symbols, vertically align</text>
  <text style="stroke:none;fill:black;font-family:sans-serif;font-size:13;" transform="matrix(1 0 0 1 263 2007)">symbols with the adjacent text.</text>
  <line style="fill:none;stroke:#00AEEF;stroke-width:0.5;opacity:1.0;" x1="776" x2="776" y1="1919" y2="1933"/>
  <g transform="matrix(1 0 0 1 776 1933)">
   <path d="M3.31055 0.15625Q3.70117 0.15625 3.91602-0.00976562Q4.13086-0.175781 4.26758-0.585938L5.52734-4.0332L11.2891-4.0332L12.5488-0.585938Q12.6855-0.175781 12.9004-0.00976562Q13.1152 0.15625 13.4961 0.15625Q13.8867 0.15625 14.1162-0.0585938Q14.3457-0.273438 14.3457-0.644531Q14.3457-0.869141 14.2383-1.17188L9.6582-13.3691Q9.48242-13.8184 9.17969-14.043Q8.87695-14.2676 8.4082-14.2676Q7.5-14.2676 7.17773-13.3789L2.59766-1.16211Q2.49023-0.859375 2.49023-0.634766Q2.49023-0.263672 2.70996-0.0537109Q2.92969 0.15625 3.31055 0.15625ZM6.00586-5.51758L8.37891-12.0898L8.42773-12.0898L10.8008-5.51758Z"/>
  </g>
  <line style="fill:none;stroke:#00AEEF;stroke-width:0.5;opacity:1.0;" x1="793.197" x2="793.197" y1="1919" y2="1933"/>
  <text style="stroke:none;fill:black;font-family:sans-serif;font-size:13;font-weight:bold;" transform="matrix(1 0 0 1 776 1953)">Margins</text>
  <text style="stroke:none;fill:black;font-family:sans-serif;font-size:13;" transform="matrix(1 0 0 1 776 1971)">Leading and trailing margins on the left and right side of each symbol</text>
  <text style="stroke:none;fill:black;font-family:sans-serif;font-size:13;" transform="matrix(1 0 0 1 776 1989)">can be adjusted by modifying the x-location of the margin guidelines.</text>
  <text style="stroke:none;fill:black;font-family:sans-serif;font-size:13;" transform="matrix(1 0 0 1 776 2007)">Modifications are automatically applied proportionally to all</text>
  <text style="stroke:none;fill:black;font-family:sans-serif;font-size:13;" transform="matrix(1 0 0 1 776 2025)">scales and weights.</text>
  <g transform="matrix(1 0 0 1 1289 1933)">
   <path d="M2.8418 1.86523L4.54102 3.57422Q5.18555 4.22852 5.90332 4.17969Q6.62109 4.13086 7.31445 3.35938L18.0078-8.42773L17.041-9.4043L6.42578 2.27539Q6.16211 2.57812 5.89355 2.61719Q5.625 2.65625 5.27344 2.30469L4.10156 1.14258Q3.75 0.791016 3.79395 0.522461Q3.83789 0.253906 4.14062-0.0195312L15.6152-10.8203L14.6387-11.7871L3.04688-0.898438Q2.30469-0.214844 2.25098 0.498047Q2.19727 1.21094 2.8418 1.86523ZM9.25781-16.3281Q8.94531-16.0254 8.90625-15.6348Q8.86719-15.2441 9.04297-14.9512Q9.21875-14.6777 9.55566-14.541Q9.89258-14.4043 10.3809-14.5215Q11.4746-14.7754 12.5977-14.7314Q13.7207-14.6875 14.7949-13.9844L14.209-12.5293Q13.9551-11.9043 14.0674-11.4404Q14.1797-10.9766 14.5801-10.5664L16.875-8.25195Q17.2363-7.88086 17.5781-7.82227Q17.9199-7.76367 18.3398-7.8418L19.4043-8.03711L20.0684-7.36328L20.0293-6.80664Q20-6.43555 20.1221-6.12305Q20.2441-5.81055 20.6055-5.44922L21.3672-4.70703Q21.7285-4.3457 22.1533-4.33105Q22.5781-4.31641 22.9297-4.66797L25.8398-7.58789Q26.1914-7.93945 26.1816-8.35449Q26.1719-8.76953 25.8105-9.13086L25.0391-9.89258Q24.6875-10.2539 24.3799-10.3857Q24.0723-10.5176 23.7109-10.4883L23.1348-10.4395L22.4902-11.0742L22.7344-12.1973Q22.832-12.6172 22.6953-12.9834Q22.5586-13.3496 22.1191-13.7891L19.9219-15.9766Q18.6719-17.2168 17.2607-17.8369Q15.8496-18.457 14.4189-18.4814Q12.9883-18.5059 11.665-17.959Q10.3418-17.4121 9.25781-16.3281ZM10.752-15.957Q11.6602-16.6211 12.7002-16.9043Q13.7402-17.1875 14.8047-17.085Q15.8691-16.9824 16.8701-16.5137Q17.8711-16.0449 18.7012-15.2051L21.1328-12.793Q21.3086-12.6172 21.3525-12.4512Q21.3965-12.2852 21.3379-12.0312L21.0156-10.5469L22.5195-9.0625L23.5059-9.12109Q23.6914-9.13086 23.7891-9.09668Q23.8867-9.0625 24.0332-8.91602L24.6094-8.33984L22.168-5.89844L21.5918-6.47461Q21.4453-6.62109 21.4062-6.71875Q21.3672-6.81641 21.377-7.01172L21.4453-7.98828L19.9512-9.47266L18.4277-9.21875Q18.1836-9.16992 18.042-9.2041Q17.9004-9.23828 17.7148-9.41406L15.7129-11.416Q15.5176-11.5918 15.4932-11.7529Q15.4688-11.9141 15.5859-12.1875L16.4648-14.2773Q15.293-15.3711 13.8281-15.791Q12.3633-16.2109 10.8398-15.7617Q10.7227-15.7324 10.6885-15.8057Q10.6543-15.8789 10.752-15.957Z"/>
  </g>
  <text style="stroke:none;fill:black;font-family:sans-serif;font-size:13;font-weight:bold;" transform="matrix(1 0 0 1 1289 1953)">Exporting</text>
  <text style="stroke:none;fill:black;font-family:sans-serif;font-size:13;" transform="matrix(1 0 0 1 1289 1971)">Symbols should be outlined when exporting to ensure the</text>
  <text style="stroke:none;fill:black;font-family:sans-serif;font-size:13;" transform="matrix(1 0 0 1 1289 1989)">design is preserved when submitting to Xcode.</text>
  <text id="template-version" style="stroke:none;fill:black;font-family:sans-serif;font-size:13;text-anchor:end;" transform="matrix(1 0 0 1 3036 1933)">Template v.3.0</text>
  <text style="stroke:none;fill:black;font-family:sans-serif;font-size:13;text-anchor:end;" transform="matrix(1 0 0 1 3036 1951)">Requires Xcode 13 or greater</text>
  <text id="descriptive-name" style="stroke:none;fill:black;font-family:sans-serif;font-size:13;text-anchor:end;" transform="matrix(1 0 0 1 3036 1969)">Generated from plus.circle.fill</text>
  <text style="stroke:none;fill:black;font-family:sans-serif;font-size:13;text-anchor:end;" transform="matrix(1 0 0 1 3036 1987)">Typeset at 100 points</text>
  <text style="stroke:none;fill:black;font-family:sans-serif;font-size:13;" transform="matrix(1 0 0 1 263 726)">Small</text>
  <text style="stroke:none;fill:black;font-family:sans-serif;font-size:13;" transform="matrix(1 0 0 1 263 1156)">Medium</text>
  <text style="stroke:none;fill:black;font-family:sans-serif;font-size:13;" transform="matrix(1 0 0 1 263 1586)">Large</text>
 </g>
 <g id="Guides">
  <g id="H-reference" style="fill:#27AAE1;stroke:none;" transform="matrix(1 0 0 1 339 696)">
   <path d="M0.993347 0L3.6377 0L29.3282-67.1326L30.0301-67.1326L30.0301-70.459L28.1227-70.459ZM11.6882-24.4797L46.9818-24.4797L46.2311-26.7288L12.4382-26.7288ZM55.1193 0L57.7637 0L30.6381-70.459L29.4327-70.459L29.4327-67.1326Z"/>
  </g>
  <line id="Baseline-S" style="fill:none;stroke:#27AAE1;opacity:1;stroke-width:0.5;" x1="263" x2="3036" y1="696" y2="696"/>
  <line id="Capline-S" style="fill:none;stroke:#27AAE1;opacity:1;stroke-width:0.5;" x1="263" x2="3036" y1="625.541" y2="625.541"/>
  <g id="H-reference" style="fill:#27AAE1;stroke:none;" transform="matrix(1 0 0 1 339 1126)">
   <path d="M0.993347 0L3.6377 0L29.3282-67.1326L30.0301-67.1326L30.0301-70.459L28.1227-70.459ZM11.6882-24.4797L46.9818-24.4797L46.2311-26.7288L12.4382-26.7288ZM55.1193 0L57.7637 0L30.6381-70.459L29.4327-70.459L29.4327-67.1326Z"/>
  </g>
  <line id="Baseline-M" style="fill:none;stroke:#27AAE1;opacity:1;stroke-width:0.5;" x1="263" x2="3036" y1="1126" y2="1126"/>
  <line id="Capline-M" style="fill:none;stroke:#27AAE1;opacity:1;stroke-width:0.5;" x1="263" x2="3036" y1="1055.54" y2="1055.54"/>
  <g id="H-reference" style="fill:#27AAE1;stroke:none;" transform="matrix(1 0 0 1 339 1556)">
   <path d="M0.993347 0L3.6377 0L29.3282-67.1326L30.0301-67.1326L30.0301-70.459L28.1227-70.459ZM11.6882-24.4797L46.9818-24.4797L46.2311-26.7288L12.4382-26.7288ZM55.1193 0L57.7637 0L30.6381-70.459L29.4327-70.459L29.4327-67.1326Z"/>
  </g>
  <line id="Baseline-L" style="fill:none;stroke:#27AAE1;opacity:1;stroke-width:0.5;" x1="263" x2="3036" y1="1556" y2="1556"/>
  <line id="Capline-L" style="fill:none;stroke:#27AAE1;opacity:1;stroke-width:0.5;" x1="263" x2="3036" y1="1485.54" y2="1485.54"/>
  <line id="left-margin-Regular-M" style="fill:none;stroke:#00AEEF;stroke-width:0.5;opacity:1.0;" x1="1391.3" x2="1391.3" y1="1030.79" y2="1150.12"/>
  <line id="right-margin-Regular-M" style="fill:none;stroke:#00AEEF;stroke-width:0.5;opacity:1.0;" x1="1508.39" x2="1508.39" y1="1030.79" y2="1150.12"/>
 </g>
 <g id="Symbols">
  <g id="Black-L" transform="matrix(1 0 0 1 2854.05 1556)">
   <path d="M79.3457 32.8613Q90.5762 32.8613 100.757 29.3945Q110.938 25.9277 119.458 19.6777Q127.979 13.4277 134.229 4.90723Q140.479-3.61328 143.945-13.7939Q147.412-23.9746 147.412-35.2051Q147.412-46.4355 143.945-56.6162Q140.479-66.7969 134.204-75.3174Q127.93-83.8379 119.434-90.1123Q110.938-96.3867 100.732-99.8291Q90.5273-103.271 79.2969-103.271Q68.1152-103.271 57.9102-99.8291Q47.7051-96.3867 39.209-90.1123Q30.7129-83.8379 24.4385-75.3174Q18.1641-66.7969 14.7217-56.6162Q11.2793-46.4355 11.2793-35.2051Q11.2793-23.9746 14.7217-13.7939Q18.1641-3.61328 24.4385 4.90723Q30.7129 13.4277 39.2334 19.6777Q47.7539 25.9277 57.9346 29.3945Q68.1152 32.8613 79.3457 32.8613ZM48.1934-35.2539Q48.1934-39.0625 50.6348-41.5771Q53.0762-44.0918 56.7871-44.0918L70.5566-44.0918L70.5566-57.8613Q70.5566-61.5723 73.0469-64.0137Q75.5371-66.4551 79.3457-66.4551Q83.1055-66.4551 85.6201-64.0137Q88.1348-61.5723 88.1348-57.8613L88.1348-44.0918L101.953-44.0918Q105.615-44.0918 108.057-41.5771Q110.498-39.0625 110.498-35.2539Q110.498-31.4941 108.057-29.0039Q105.615-26.5137 101.953-26.5137L88.1348-26.5137L88.1348-12.6953Q88.1348-9.0332 85.6201-6.5918Q83.1055-4.15039 79.3457-4.15039Q75.5371-4.15039 73.0469-6.5918Q70.5566-9.0332 70.5566-12.6953L70.5566-26.5137L56.7871-26.5137Q53.0762-26.5137 50.6348-29.0039Q48.1934-31.4941 48.1934-35.2539Z"/>
  </g>
  <g id="Heavy-L" transform="matrix(1 0 0 1 2558.4 1556)">
   <path d="M78.2715 31.7871Q89.3555 31.7871 99.3652 28.3691Q109.375 24.9512 117.749 18.7988Q126.123 12.6465 132.3 4.24805Q138.477-4.15039 141.895-14.1602Q145.312-24.1699 145.312-35.2051Q145.312-46.2402 141.895-56.2744Q138.477-66.3086 132.3-74.6826Q126.123-83.0566 117.749-89.2578Q109.375-95.459 99.3408-98.8525Q89.3066-102.246 78.2227-102.246Q67.2363-102.246 57.2021-98.8525Q47.168-95.459 38.7939-89.2578Q30.4199-83.0566 24.2432-74.6826Q18.0664-66.3086 14.6729-56.2744Q11.2793-46.2402 11.2793-35.2051Q11.2793-24.1699 14.6729-14.1602Q18.0664-4.15039 24.2432 4.24805Q30.4199 12.6465 38.8184 18.7988Q47.2168 24.9512 57.2266 28.3691Q67.2363 31.7871 78.2715 31.7871ZM47.3633-35.2539Q47.3633-38.6719 49.5361-40.8936Q51.709-43.1152 55.0293-43.1152L70.459-43.1152L70.459-58.5449Q70.459-61.8652 72.6562-64.0381Q74.8535-66.2109 78.2227-66.2109Q81.5918-66.2109 83.8379-64.0381Q86.084-61.8652 86.084-58.5449L86.084-43.1152L101.514-43.1152Q104.785-43.1152 106.982-40.8936Q109.18-38.6719 109.18-35.2539Q109.18-31.8848 106.982-29.6875Q104.785-27.4902 101.514-27.4902L86.084-27.4902L86.084-12.0605Q86.084-8.78906 83.8379-6.5918Q81.5918-4.39453 78.2227-4.39453Q74.8535-4.39453 72.6562-6.5918Q70.459-8.78906 70.459-12.0605L70.459-27.4902L55.0293-27.4902Q51.709-27.4902 49.5361-29.6875Q47.3633-31.8848 47.3633-35.2539Z"/>
  </g>
  <g id="Bold-L" transform="matrix(1 0 0 1 2262.87 1556)">
   <path d="M77.0996 30.6152Q87.9395 30.6152 97.7783 27.2461Q107.617 23.877 115.869 17.8223Q124.121 11.7676 130.176 3.51562Q136.23-4.73633 139.6-14.5752Q142.969-24.4141 142.969-35.2539Q142.969-46.0938 139.6-55.9326Q136.23-65.7715 130.151-73.999Q124.072-82.2266 115.845-88.3057Q107.617-94.3848 97.7539-97.7295Q87.8906-101.074 77.0508-101.074Q66.2598-101.074 56.3965-97.7295Q46.5332-94.3848 38.3301-88.3057Q30.127-82.2266 24.0479-73.999Q17.9688-65.7715 14.624-55.9326Q11.2793-46.0938 11.2793-35.2539Q11.2793-24.4141 14.624-14.5752Q17.9688-4.73633 24.0479 3.51562Q30.127 11.7676 38.3545 17.8223Q46.582 23.877 56.4209 27.2461Q66.2598 30.6152 77.0996 30.6152ZM46.4844-35.2051Q46.4844-38.1836 48.3643-40.0879Q50.2441-41.9922 53.1738-41.9922L70.4102-41.9922L70.4102-59.2285Q70.4102-62.1094 72.29-64.0137Q74.1699-65.918 77.0508-65.918Q79.9805-65.918 81.9092-64.0137Q83.8379-62.1094 83.8379-59.2285L83.8379-41.9922L101.074-41.9922Q103.955-41.9922 105.835-40.0879Q107.715-38.1836 107.715-35.2051Q107.715-32.3242 105.835-30.4443Q103.955-28.5645 101.074-28.5645L83.8379-28.5645L83.8379-11.2793Q83.8379-8.44727 81.9092-6.56738Q79.9805-4.6875 77.0508-4.6875Q74.1699-4.6875 72.29-6.56738Q70.4102-8.44727 70.4102-11.2793L70.4102-28.5645L53.1738-28.5645Q50.293-28.5645 48.3887-30.4443Q46.4844-32.3242 46.4844-35.2051Z"/>
  </g>
  <g id="Semibold-L" transform="matrix(1 0 0 1 1966.97 1556)">
   <path d="M76.2695 29.7852Q86.9629 29.7852 96.6797 26.4648Q106.396 23.1445 114.551 17.1631Q122.705 11.1816 128.687 3.02734Q134.668-5.12695 137.988-14.8438Q141.309-24.5605 141.309-35.2539Q141.309-45.9473 137.988-55.6641Q134.668-65.3809 128.662-73.5107Q122.656-81.6406 114.526-87.6465Q106.396-93.6523 96.6553-96.9727Q86.9141-100.293 76.2207-100.293Q65.5273-100.293 55.8105-96.9727Q46.0938-93.6523 37.9883-87.6465Q29.8828-81.6406 23.877-73.5107Q17.8711-65.3809 14.5752-55.6641Q11.2793-45.9473 11.2793-35.2539Q11.2793-24.5605 14.5996-14.8438Q17.9199-5.12695 23.9014 3.02734Q29.8828 11.1816 38.0127 17.1631Q46.1426 23.1445 55.8594 26.4648Q65.5762 29.7852 76.2695 29.7852ZM45.8496-35.2051Q45.8496-37.8418 47.5342-39.5508Q49.2188-41.2598 51.8066-41.2598L70.3125-41.2598L70.3125-59.7656Q70.3125-62.3047 71.9727-64.0137Q73.6328-65.7227 76.2207-65.7227Q78.8086-65.7227 80.5176-64.0137Q82.2266-62.3047 82.2266-59.7656L82.2266-41.2598L100.732-41.2598Q103.32-41.2598 105.005-39.5508Q106.689-37.8418 106.689-35.2051Q106.689-32.666 105.005-31.0059Q103.32-29.3457 100.732-29.3457L82.2266-29.3457L82.2266-10.791Q82.2266-8.20312 80.5176-6.54297Q78.8086-4.88281 76.2207-4.88281Q73.6328-4.88281 71.9727-6.56738Q70.3125-8.25195 70.3125-10.791L70.3125-29.3457L51.8066-29.3457Q49.2188-29.3457 47.5342-31.0059Q45.8496-32.666 45.8496-35.2051Z"/>
  </g>
  <g id="Medium-L" transform="matrix(1 0 0 1 1670.87 1556)">
   <path d="M75.6836 29.1504Q86.2305 29.1504 95.8496 25.8545Q105.469 22.5586 113.55 16.626Q121.631 10.6934 127.563 2.63672Q133.496-5.41992 136.792-15.0635Q140.088-24.707 140.088-35.2539Q140.088-45.8496 136.792-55.4688Q133.496-65.0879 127.539-73.1445Q121.582-81.2012 113.525-87.1582Q105.469-93.1152 95.8252-96.3867Q86.1816-99.6582 75.6348-99.6582Q65.0391-99.6582 55.4199-96.3867Q45.8008-93.1152 37.7441-87.1582Q29.6875-81.2012 23.7549-73.1445Q17.8223-65.0879 14.5508-55.4688Q11.2793-45.8496 11.2793-35.2539Q11.2793-24.707 14.5508-15.0635Q17.8223-5.41992 23.7549 2.63672Q29.6875 10.6934 37.7686 16.626Q45.8496 22.5586 55.4688 25.8545Q65.0879 29.1504 75.6836 29.1504ZM45.4102-35.2051Q45.4102-37.5977 46.9238-39.1357Q48.4375-40.6738 50.8301-40.6738L70.3125-40.6738L70.3125-60.1562Q70.3125-62.5 71.8018-64.0381Q73.291-65.5762 75.5859-65.5762Q77.9785-65.5762 79.5166-64.0381Q81.0547-62.5 81.0547-60.1562L81.0547-40.6738L100.537-40.6738Q102.93-40.6738 104.443-39.1357Q105.957-37.5977 105.957-35.2051Q105.957-32.9102 104.419-31.4209Q102.881-29.9316 100.537-29.9316L81.0547-29.9316L81.0547-10.4004Q81.0547-8.05664 79.5166-6.54297Q77.9785-5.0293 75.5859-5.0293Q73.291-5.0293 71.8018-6.56738Q70.3125-8.10547 70.3125-10.4004L70.3125-29.9316L50.8301-29.9316Q48.4863-29.9316 46.9482-31.4209Q45.4102-32.9102 45.4102-35.2051Z"/>
  </g>
  <g id="Regular-L" transform="matrix(1 0 0 1 1374.97 1556)">
   <path d="M74.8535 28.3203Q85.3027 28.3203 94.7998 25.0732Q104.297 21.8262 112.256 15.9668Q120.215 10.1074 126.099 2.14844Q131.982-5.81055 135.229-15.332Q138.477-24.8535 138.477-35.2539Q138.477-45.7031 135.229-55.2002Q131.982-64.6973 126.099-72.6562Q120.215-80.6152 112.256-86.499Q104.297-92.3828 94.7754-95.6299Q85.2539-98.877 74.8047-98.877Q64.3555-98.877 54.8584-95.6299Q45.3613-92.3828 37.4268-86.499Q29.4922-80.6152 23.6084-72.6562Q17.7246-64.6973 14.502-55.2002Q11.2793-45.7031 11.2793-35.2539Q11.2793-24.8535 14.5264-15.332Q17.7734-5.81055 23.6328 2.14844Q29.4922 10.1074 37.4512 15.9668Q45.4102 21.8262 54.9072 25.0732Q64.4043 28.3203 74.8535 28.3203ZM44.7754-35.2051Q44.7754-37.3047 46.0938-38.623Q47.4121-39.9414 49.5117-39.9414L70.2148-39.9414L70.2148-60.6445Q70.2148-62.6953 71.4844-64.0381Q72.7539-65.3809 74.7559-65.3809Q76.8555-65.3809 78.1738-64.0381Q79.4922-62.6953 79.4922-60.6445L79.4922-39.9414L100.195-39.9414Q102.295-39.9414 103.613-38.623Q104.932-37.3047 104.932-35.2051Q104.932-33.2031 103.589-31.9336Q102.246-30.6641 100.195-30.6641L79.4922-30.6641L79.4922-9.91211Q79.4922-7.86133 78.1738-6.54297Q76.8555-5.22461 74.7559-5.22461Q72.7539-5.22461 71.4844-6.56738Q70.2148-7.91016 70.2148-9.91211L70.2148-30.6641L49.5117-30.6641Q47.4609-30.6641 46.1182-31.9336Q44.7754-33.2031 44.7754-35.2051Z"/>
  </g>
  <g id="Light-L" transform="matrix(1 0 0 1 1079.18 1556)">
   <path d="M73.9258 27.3926Q84.2285 27.3926 93.6035 24.1943Q102.979 20.9961 110.815 15.2344Q118.652 9.47266 124.438 1.63574Q130.225-6.20117 133.423-15.5762Q136.621-24.9512 136.621-35.2539Q136.621-45.5566 133.423-54.9316Q130.225-64.3066 124.438-72.1436Q118.652-79.9805 110.815-85.7666Q102.979-91.5527 93.6035-94.751Q84.2285-97.9492 73.877-97.9492Q63.5742-97.9492 54.2236-94.751Q44.873-91.5527 37.0361-85.7666Q29.1992-79.9805 23.4131-72.1436Q17.627-64.3066 14.4531-54.9316Q11.2793-45.5566 11.2793-35.2539Q11.2793-24.9512 14.4775-15.5762Q17.6758-6.20117 23.4375 1.63574Q29.1992 9.47266 37.0361 15.2344Q44.873 20.9961 54.248 24.1943Q63.623 27.3926 73.9258 27.3926ZM44.8242-35.2051Q44.8242-36.7676 45.8252-37.793Q46.8262-38.8184 48.4375-38.8184L70.4102-38.8184L70.4102-60.8398Q70.4102-62.3535 71.3867-63.3789Q72.3633-64.4043 73.8281-64.4043Q75.4395-64.4043 76.4648-63.3789Q77.4902-62.3535 77.4902-60.8398L77.4902-38.8184L99.4629-38.8184Q101.025-38.8184 102.051-37.793Q103.076-36.7676 103.076-35.2051Q103.076-33.7402 102.026-32.7637Q100.977-31.7871 99.4629-31.7871L77.4902-31.7871L77.4902-9.76562Q77.4902-8.20312 76.4648-7.20215Q75.4395-6.20117 73.8281-6.20117Q72.3633-6.20117 71.3867-7.22656Q70.4102-8.25195 70.4102-9.76562L70.4102-31.7871L48.4375-31.7871Q46.875-31.7871 45.8496-32.7637Q44.8242-33.7402 44.8242-35.2051Z"/>
  </g>
  <g id="Thin-L" transform="matrix(1 0 0 1 783.689 1556)">
   <path d="M72.7051 26.1719Q82.8613 26.1719 92.041 23.0469Q101.221 19.9219 108.911 14.2822Q116.602 8.64258 122.266 0.952148Q127.93-6.73828 131.055-15.9424Q134.18-25.1465 134.18-35.2539Q134.18-45.4102 131.055-54.5898Q127.93-63.7695 122.29-71.46Q116.65-79.1504 108.936-84.8145Q101.221-90.4785 92.0166-93.6035Q82.8125-96.7285 72.7051-96.7285Q62.5488-96.7285 53.3691-93.6035Q44.1895-90.4785 36.499-84.8145Q28.8086-79.1504 23.1689-71.46Q17.5293-63.7695 14.4043-54.5898Q11.2793-45.4102 11.2793-35.2539Q11.2793-25.1465 14.4043-15.9424Q17.5293-6.73828 23.1689 0.952148Q28.8086 8.64258 36.5234 14.2822Q44.2383 19.9219 53.418 23.0469Q62.5977 26.1719 72.7051 26.1719ZM44.873-35.2539Q44.873-36.1816 45.459-36.792Q46.0449-37.4023 46.9727-37.4023L70.6055-37.4023L70.6055-61.1328Q70.6055-61.9141 71.2158-62.5488Q71.8262-63.1836 72.6562-63.1836Q73.5352-63.1836 74.1455-62.5977Q74.7559-62.0117 74.7559-61.1328L74.7559-37.4023L98.4863-37.4023Q99.3652-37.4023 99.9756-36.792Q100.586-36.1816 100.586-35.2539Q100.586-34.4727 99.9512-33.8867Q99.3164-33.3008 98.4863-33.3008L74.7559-33.3008L74.7559-9.57031Q74.7559-8.69141 74.1455-8.10547Q73.5352-7.51953 72.6562-7.51953Q71.8262-7.51953 71.2158-8.1543Q70.6055-8.78906 70.6055-9.57031L70.6055-33.3008L46.9727-33.3008Q46.0938-33.3008 45.4834-33.8867Q44.873-34.4727 44.873-35.2539Z"/>
  </g>
  <g id="Ultralight-L" transform="matrix(1 0 0 1 487.603 1556)">
   <path d="M72.0703 25.5371Q82.1289 25.5371 91.2354 22.4609Q100.342 19.3848 107.935 13.7939Q115.527 8.20312 121.143 0.585938Q126.758-7.03125 129.858-16.1133Q132.959-25.1953 132.959-35.2539Q132.959-45.3125 129.858-54.4189Q126.758-63.5254 121.167-71.1182Q115.576-78.7109 107.959-84.3262Q100.342-89.9414 91.2354-93.0176Q82.1289-96.0938 72.0703-96.0938Q62.0605-96.0938 52.9541-93.0176Q43.8477-89.9414 36.2305-84.3262Q28.6133-78.7109 23.0225-71.1182Q17.4316-63.5254 14.3555-54.4189Q11.2793-45.3125 11.2793-35.2539Q11.2793-25.1953 14.3555-16.1133Q17.4316-7.03125 23.0225 0.585938Q28.6133 8.20312 36.2305 13.7939Q43.8477 19.3848 52.9541 22.4609Q62.0605 25.5371 72.0703 25.5371ZM44.9219-35.2539Q44.9219-35.791 45.3125-36.2305Q45.7031-36.6699 46.2402-36.6699L70.752-36.6699L70.752-61.2305Q70.752-61.7188 71.167-62.1094Q71.582-62.5 72.0215-62.5Q72.6074-62.5 73.0225-62.1338Q73.4375-61.7676 73.4375-61.2305L73.4375-36.6699L97.998-36.6699Q98.5352-36.6699 98.9258-36.2305Q99.3164-35.791 99.3164-35.2539Q99.3164-34.8633 98.9014-34.4482Q98.4863-34.0332 97.998-34.0332L73.4375-34.0332L73.4375-9.47266Q73.4375-8.88672 73.0225-8.54492Q72.6074-8.20312 72.0215-8.20312Q71.582-8.20312 71.167-8.59375Q70.752-8.98438 70.752-9.47266L70.752-34.0332L46.2402-34.0332Q45.752-34.0332 45.3369-34.4482Q44.9219-34.8633 44.9219-35.2539Z"/>
  </g>
  <g id="Black-M" transform="matrix(1 0 0 1 2871.32 1126)">
   <path d="M62.0605 18.1152Q73.0957 18.1152 82.7637 13.9648Q92.4316 9.81445 99.7559 2.46582Q107.08-4.88281 111.255-14.5264Q115.43-24.1699 115.43-35.2051Q115.43-46.2402 111.255-55.8838Q107.08-65.5273 99.7559-72.876Q92.4316-80.2246 82.7637-84.375Q73.0957-88.5254 62.0605-88.5254Q51.0742-88.5254 41.4062-84.375Q31.7383-80.2246 24.3896-72.876Q17.041-65.5273 12.8906-55.8838Q8.74023-46.2402 8.74023-35.2051Q8.74023-24.1699 12.8906-14.5264Q17.041-4.88281 24.3896 2.46582Q31.7383 9.81445 41.4062 13.9648Q51.0742 18.1152 62.0605 18.1152ZM38.0371-35.2539Q38.0371-38.3789 40.0635-40.4541Q42.0898-42.5293 45.1172-42.5293L54.7852-42.5293L54.7852-52.2461Q54.7852-55.2734 56.8848-57.2998Q58.9844-59.3262 62.0605-59.3262Q65.1855-59.3262 67.2607-57.2998Q69.3359-55.2734 69.3359-52.2461L69.3359-42.5293L79.0527-42.5293Q82.0801-42.5293 84.1064-40.4541Q86.1328-38.3789 86.1328-35.2539Q86.1328-32.1777 84.1064-30.0781Q82.0801-27.9785 79.0527-27.9785L69.3359-27.9785L69.3359-18.2617Q69.3359-15.2832 67.2607-13.2568Q65.1855-11.2305 62.0605-11.2305Q58.9844-11.2305 56.8848-13.2568Q54.7852-15.2832 54.7852-18.2617L54.7852-27.9785L45.1172-27.9785Q42.0898-27.9785 40.0635-30.0781Q38.0371-32.1777 38.0371-35.2539Z"/>
  </g>
  <g id="Heavy-M" transform="matrix(1 0 0 1 2575.44 1126)">
   <path d="M61.2305 17.2852Q72.0703 17.2852 81.5918 13.1836Q91.1133 9.08203 98.3154 1.85547Q105.518-5.37109 109.644-14.8682Q113.77-24.3652 113.77-35.2051Q113.77-46.0449 109.644-55.542Q105.518-65.0391 98.3154-72.29Q91.1133-79.541 81.5918-83.6182Q72.0703-87.6953 61.2305-87.6953Q50.4395-87.6953 40.918-83.6182Q31.3965-79.541 24.1699-72.29Q16.9434-65.0391 12.8418-55.542Q8.74023-46.0449 8.74023-35.2051Q8.74023-24.3652 12.8418-14.8682Q16.9434-5.37109 24.1699 1.85547Q31.3965 9.08203 40.918 13.1836Q50.4395 17.2852 61.2305 17.2852ZM37.2559-35.2539Q37.2559-38.0859 39.0869-39.9658Q40.918-41.8457 43.7012-41.8457L54.6875-41.8457L54.6875-52.8809Q54.6875-55.6152 56.5674-57.4463Q58.4473-59.2773 61.2305-59.2773Q64.0625-59.2773 65.918-57.4463Q67.7734-55.6152 67.7734-52.8809L67.7734-41.8457L78.8574-41.8457Q81.5918-41.8457 83.4229-39.9658Q85.2539-38.0859 85.2539-35.2539Q85.2539-32.4707 83.4229-30.5908Q81.5918-28.7109 78.8574-28.7109L67.7734-28.7109L67.7734-17.6758Q67.7734-14.9414 65.918-13.1104Q64.0625-11.2793 61.2305-11.2793Q58.4473-11.2793 56.5674-13.1104Q54.6875-14.9414 54.6875-17.6758L54.6875-28.7109L43.7012-28.7109Q40.918-28.7109 39.0869-30.5908Q37.2559-32.4707 37.2559-35.2539Z"/>
  </g>
  <g id="Bold-M" transform="matrix(1 0 0 1 2279.66 1126)">
   <path d="M60.3027 16.3574Q70.9473 16.3574 80.2734 12.3291Q89.5996 8.30078 96.7041 1.17188Q103.809-5.95703 107.861-15.2832Q111.914-24.6094 111.914-35.2539Q111.914-45.8496 107.861-55.1758Q103.809-64.502 96.7041-71.6309Q89.5996-78.7598 80.249-82.7881Q70.8984-86.8164 60.3027-86.8164Q49.707-86.8164 40.3564-82.7881Q31.0059-78.7598 23.9014-71.6309Q16.7969-64.502 12.7686-55.1758Q8.74023-45.8496 8.74023-35.2539Q8.74023-24.6094 12.7686-15.2832Q16.7969-5.95703 23.9258 1.17188Q31.0547 8.30078 40.3809 12.3291Q49.707 16.3574 60.3027 16.3574ZM36.377-35.2051Q36.377-37.7441 38.0127-39.3799Q39.6484-41.0156 42.0898-41.0156L54.5898-41.0156L54.5898-53.5156Q54.5898-55.957 56.2012-57.5928Q57.8125-59.2285 60.3027-59.2285Q62.793-59.2285 64.4287-57.5928Q66.0645-55.957 66.0645-53.5156L66.0645-41.0156L78.6133-41.0156Q81.0547-41.0156 82.666-39.3799Q84.2773-37.7441 84.2773-35.2051Q84.2773-32.7637 82.666-31.1279Q81.0547-29.4922 78.6133-29.4922L66.0645-29.4922L66.0645-16.9922Q66.0645-14.5508 64.4287-12.9395Q62.793-11.3281 60.3027-11.3281Q57.8125-11.3281 56.2012-12.9395Q54.5898-14.5508 54.5898-16.9922L54.5898-29.4922L42.0898-29.4922Q39.6484-29.4922 38.0127-31.1279Q36.377-32.7637 36.377-35.2051Z"/>
  </g>
  <g id="Semibold-M" transform="matrix(1 0 0 1 1983.6 1126)">
   <path d="M59.668 15.6738Q70.1172 15.6738 79.3457 11.6943Q88.5742 7.71484 95.6055 0.683594Q102.637-6.34766 106.616-15.5518Q110.596-24.7559 110.596-35.2539Q110.596-45.7031 106.616-54.9072Q102.637-64.1113 95.6055-71.1426Q88.5742-78.1738 79.3457-82.1777Q70.1172-86.1816 59.6191-86.1816Q49.1699-86.1816 39.9658-82.1777Q30.7617-78.1738 23.7305-71.1426Q16.6992-64.1113 12.7197-54.9072Q8.74023-45.7031 8.74023-35.2539Q8.74023-24.7559 12.7197-15.5518Q16.6992-6.34766 23.7305 0.683594Q30.7617 7.71484 39.9902 11.6943Q49.2188 15.6738 59.668 15.6738ZM35.791-35.2051Q35.791-37.5 37.2559-38.9648Q38.7207-40.4297 41.0156-40.4297L54.4922-40.4297L54.4922-53.9551Q54.4922-56.2012 55.957-57.6904Q57.4219-59.1797 59.668-59.1797Q61.9629-59.1797 63.4277-57.6904Q64.8926-56.2012 64.8926-53.9551L64.8926-40.4297L78.418-40.4297Q80.7129-40.4297 82.1777-38.9648Q83.6426-37.5 83.6426-35.2051Q83.6426-32.959 82.1533-31.5186Q80.6641-30.0781 78.418-30.0781L64.8926-30.0781L64.8926-16.5039Q64.8926-14.2578 63.4277-12.793Q61.9629-11.3281 59.668-11.3281Q57.4219-11.3281 55.957-12.793Q54.4922-14.2578 54.4922-16.5039L54.4922-30.0781L41.0156-30.0781Q38.7207-30.0781 37.2559-31.5186Q35.791-32.959 35.791-35.2051Z"/>
  </g>
  <g id="Medium-M" transform="matrix(1 0 0 1 1687.37 1126)">
   <path d="M59.1797 15.1855Q69.5312 15.1855 78.6621 11.2305Q87.793 7.27539 94.751 0.317383Q101.709-6.64062 105.664-15.7715Q109.619-24.9023 109.619-35.2539Q109.619-45.6055 105.664-54.7363Q101.709-63.8672 94.751-70.8252Q87.793-77.7832 78.6377-81.7383Q69.4824-85.6934 59.1309-85.6934Q48.7793-85.6934 39.6484-81.7383Q30.5176-77.7832 23.584-70.8252Q16.6504-63.8672 12.6953-54.7363Q8.74023-45.6055 8.74023-35.2539Q8.74023-24.9023 12.6953-15.7715Q16.6504-6.64062 23.6084 0.317383Q30.5664 7.27539 39.6973 11.2305Q48.8281 15.1855 59.1797 15.1855ZM35.3027-35.2051Q35.3027-37.3047 36.6699-38.6719Q38.0371-40.0391 40.1367-40.0391L54.3945-40.0391L54.3945-54.2969Q54.3945-56.4453 55.7129-57.8125Q57.0312-59.1797 59.1309-59.1797Q61.2305-59.1797 62.5977-57.8125Q63.9648-56.4453 63.9648-54.2969L63.9648-40.0391L78.2715-40.0391Q80.3711-40.0391 81.7139-38.6719Q83.0566-37.3047 83.0566-35.2051Q83.0566-33.1543 81.7139-31.8115Q80.3711-30.4688 78.2715-30.4688L63.9648-30.4688L63.9648-16.1621Q63.9648-14.0625 62.5977-12.7197Q61.2305-11.377 59.1309-11.377Q57.0312-11.377 55.7129-12.7197Q54.3945-14.0625 54.3945-16.1621L54.3945-30.4688L40.1367-30.4688Q38.0371-30.4688 36.6699-31.8115Q35.3027-33.1543 35.3027-35.2051Z"/>
  </g>
  <g id="Regular-M" transform="matrix(1 0 0 1 1391.3 1126)">
   <path d="M58.5449 14.5508Q68.75 14.5508 77.7588 10.6445Q86.7676 6.73828 93.6523-0.146484Q100.537-7.03125 104.443-16.04Q108.35-25.0488 108.35-35.2539Q108.35-45.459 104.443-54.4678Q100.537-63.4766 93.6523-70.3613Q86.7676-77.2461 77.7344-81.1523Q68.7012-85.0586 58.4961-85.0586Q48.291-85.0586 39.2822-81.1523Q30.2734-77.2461 23.4131-70.3613Q16.5527-63.4766 12.6465-54.4678Q8.74023-45.459 8.74023-35.2539Q8.74023-25.0488 12.6465-16.04Q16.5527-7.03125 23.4375-0.146484Q30.3223 6.73828 39.3311 10.6445Q48.3398 14.5508 58.5449 14.5508ZM34.7168-35.2051Q34.7168-37.1094 35.9375-38.3057Q37.1582-39.502 39.0625-39.502L54.3457-39.502L54.3457-54.7852Q54.3457-56.6895 55.4932-57.9102Q56.6406-59.1309 58.4961-59.1309Q60.4004-59.1309 61.5967-57.9102Q62.793-56.6895 62.793-54.7852L62.793-39.502L78.125-39.502Q80.0293-39.502 81.2256-38.3057Q82.4219-37.1094 82.4219-35.2051Q82.4219-33.3496 81.2012-32.2021Q79.9805-31.0547 78.125-31.0547L62.793-31.0547L62.793-15.7227Q62.793-13.8184 61.5967-12.6221Q60.4004-11.4258 58.4961-11.4258Q56.6406-11.4258 55.4932-12.6221Q54.3457-13.8184 54.3457-15.7227L54.3457-31.0547L39.0625-31.0547Q37.1582-31.0547 35.9375-32.2021Q34.7168-33.3496 34.7168-35.2051Z"/>
  </g>
  <g id="Light-M" transform="matrix(1 0 0 1 1095.41 1126)">
   <path d="M57.7148 13.7207Q67.7734 13.7207 76.6357 9.8877Q85.498 6.05469 92.2607-0.708008Q99.0234-7.4707 102.856-16.333Q106.689-25.1953 106.689-35.2539Q106.689-45.3125 102.856-54.1748Q99.0234-63.0371 92.2607-69.7998Q85.498-76.5625 76.6113-80.3955Q67.7246-84.2285 57.666-84.2285Q47.6074-84.2285 38.7451-80.3955Q29.8828-76.5625 23.1445-69.7998Q16.4062-63.0371 12.5732-54.1748Q8.74023-45.3125 8.74023-35.2539Q8.74023-25.1953 12.5732-16.333Q16.4062-7.4707 23.1689-0.708008Q29.9316 6.05469 38.7939 9.8877Q47.6562 13.7207 57.7148 13.7207ZM34.7656-35.2051Q34.7656-36.6699 35.6934-37.5977Q36.6211-38.5254 38.0859-38.5254L54.4922-38.5254L54.4922-54.9316Q54.4922-56.3965 55.3955-57.3242Q56.2988-58.252 57.666-58.252Q59.1309-58.252 60.0586-57.3242Q60.9863-56.3965 60.9863-54.9316L60.9863-38.5254L77.4414-38.5254Q78.9062-38.5254 79.834-37.5977Q80.7617-36.6699 80.7617-35.2051Q80.7617-33.8379 79.8096-32.9346Q78.8574-32.0312 77.4414-32.0312L60.9863-32.0312L60.9863-15.5762Q60.9863-14.1113 60.0586-13.208Q59.1309-12.3047 57.666-12.3047Q56.2988-12.3047 55.3955-13.2324Q54.4922-14.1602 54.4922-15.5762L54.4922-32.0312L38.0859-32.0312Q36.6699-32.0312 35.7178-32.9346Q34.7656-33.8379 34.7656-35.2051Z"/>
  </g>
  <g id="Thin-M" transform="matrix(1 0 0 1 799.793 1126)">
   <path d="M56.5918 12.5977Q66.5039 12.5977 75.1709 8.88672Q83.8379 5.17578 90.4297-1.44043Q97.0215-8.05664 100.781-16.7236Q104.541-25.3906 104.541-35.2539Q104.541-45.1172 100.781-53.7842Q97.0215-62.4512 90.4297-69.0674Q83.8379-75.6836 75.1709-79.3945Q66.5039-83.1055 56.5918-83.1055Q46.7285-83.1055 38.0615-79.3945Q29.3945-75.6836 22.8271-69.0674Q16.2598-62.4512 12.5-53.7842Q8.74023-45.1172 8.74023-35.2539Q8.74023-25.3906 12.4756-16.7236Q16.2109-8.05664 22.8027-1.44043Q29.3945 5.17578 38.0859 8.88672Q46.7773 12.5977 56.5918 12.5977ZM34.7656-35.2539Q34.7656-36.084 35.3271-36.6455Q35.8887-37.207 36.7188-37.207L54.6875-37.207L54.6875-55.2246Q54.6875-56.0547 55.2246-56.6162Q55.7617-57.1777 56.543-57.1777Q57.373-57.1777 57.959-56.6162Q58.5449-56.0547 58.5449-55.2246L58.5449-37.207L76.5137-37.207Q77.3926-37.207 77.9297-36.6455Q78.4668-36.084 78.4668-35.2539Q78.4668-34.4727 77.9053-33.9355Q77.3438-33.3984 76.5137-33.3984L58.5449-33.3984L58.5449-15.4297Q58.5449-14.5508 57.959-14.0137Q57.373-13.4766 56.543-13.4766Q55.7617-13.4766 55.2246-14.0381Q54.6875-14.5996 54.6875-15.4297L54.6875-33.3984L36.7188-33.3984Q35.8887-33.3984 35.3271-33.9355Q34.7656-34.4727 34.7656-35.2539Z"/>
  </g>
  <g id="Ultralight-M" transform="matrix(1 0 0 1 503.641 1126)">
   <path d="M56.0547 12.0605Q65.8203 12.0605 74.3896 8.37402Q82.959 4.6875 89.4775-1.83105Q95.9961-8.34961 99.707-16.9189Q103.418-25.4883 103.418-35.2539Q103.418-45.0195 99.707-53.5889Q95.9961-62.1582 89.4775-68.6768Q82.959-75.1953 74.3896-78.8818Q65.8203-82.5684 56.0547-82.5684Q46.2891-82.5684 37.7197-78.8818Q29.1504-75.1953 22.6562-68.6768Q16.1621-62.1582 12.4512-53.5889Q8.74023-45.0195 8.74023-35.2539Q8.74023-25.4883 12.4268-16.9189Q16.1133-8.34961 22.6318-1.83105Q29.1504 4.6875 37.7197 8.37402Q46.2891 12.0605 56.0547 12.0605ZM34.8145-35.2539Q34.8145-35.791 35.1807-36.1816Q35.5469-36.5723 36.084-36.5723L54.7852-36.5723L54.7852-55.3223Q54.7852-55.8105 55.1758-56.2012Q55.5664-56.5918 56.0059-56.5918Q56.543-56.5918 56.958-56.2256Q57.373-55.8594 57.373-55.3223L57.373-36.5723L76.0742-36.5723Q76.6113-36.5723 76.9775-36.1816Q77.3438-35.791 77.3438-35.2539Q77.3438-34.8145 76.9531-34.4238Q76.5625-34.0332 76.0742-34.0332L57.373-34.0332L57.373-15.332Q57.373-14.7949 56.958-14.4287Q56.543-14.0625 56.0059-14.0625Q55.5664-14.0625 55.1758-14.4531Q54.7852-14.8438 54.7852-15.332L54.7852-34.0332L36.084-34.0332Q35.5957-34.0332 35.2051-34.4238Q34.8145-34.8145 34.8145-35.2539Z"/>
  </g>
  <g id="Black-S" transform="matrix(1 0 0 1 2884.57 696)">
   <path d="M48.8281 6.78711Q57.5195 6.78711 65.1123 3.51562Q72.7051 0.244141 78.4912-5.54199Q84.2773-11.3281 87.5488-18.9209Q90.8203-26.5137 90.8203-35.2051Q90.8203-43.8965 87.5488-51.4893Q84.2773-59.082 78.4912-64.8682Q72.7051-70.6543 65.1123-73.9258Q57.5195-77.1973 48.8281-77.1973Q40.1367-77.1973 32.5439-73.9258Q24.9512-70.6543 19.165-64.8682Q13.3789-59.082 10.1074-51.4893Q6.83594-43.8965 6.83594-35.2051Q6.83594-26.5137 10.1074-18.9209Q13.3789-11.3281 19.165-5.54199Q24.9512 0.244141 32.5439 3.51562Q40.1367 6.78711 48.8281 6.78711ZM30.0293-35.2539Q30.0293-37.7441 31.665-39.4287Q33.3008-41.1133 35.6934-41.1133L42.9688-41.1133L42.9688-48.3887Q42.9688-50.8301 44.6533-52.4414Q46.3379-54.0527 48.8281-54.0527Q51.3184-54.0527 53.0029-52.4414Q54.6875-50.8301 54.6875-48.3887L54.6875-41.1133L61.9629-41.1133Q64.4043-41.1133 66.0156-39.4287Q67.627-37.7441 67.627-35.2539Q67.627-32.7637 66.0156-31.0791Q64.4043-29.3945 61.9629-29.3945L54.6875-29.3945L54.6875-22.1191Q54.6875-19.7266 53.0029-18.0908Q51.3184-16.4551 48.8281-16.4551Q46.3379-16.4551 44.6533-18.0908Q42.9688-19.7266 42.9688-22.1191L42.9688-29.3945L35.6934-29.3945Q33.3008-29.3945 31.665-31.0791Q30.0293-32.7637 30.0293-35.2539Z"/>
  </g>
  <g id="Heavy-S" transform="matrix(1 0 0 1 2588.47 696)">
   <path d="M48.1934 6.15234Q56.7871 6.15234 64.2578 2.92969Q71.7285-0.292969 77.4414-6.00586Q83.1543-11.7188 86.377-19.1895Q89.5996-26.6602 89.5996-35.2051Q89.5996-43.75 86.377-51.2451Q83.1543-58.7402 77.4414-64.4531Q71.7285-70.166 64.2334-73.3887Q56.7383-76.6113 48.1934-76.6113Q39.6484-76.6113 32.1777-73.3887Q24.707-70.166 18.9941-64.4531Q13.2812-58.7402 10.0586-51.2451Q6.83594-43.75 6.83594-35.2051Q6.83594-26.6602 10.0586-19.1895Q13.2812-11.7188 18.9941-6.00586Q24.707-0.292969 32.2021 2.92969Q39.6973 6.15234 48.1934 6.15234ZM29.3457-35.2539Q29.3457-37.5488 30.8594-39.0869Q32.373-40.625 34.6191-40.625L42.8223-40.625L42.8223-48.877Q42.8223-51.1719 44.3604-52.6611Q45.8984-54.1504 48.1934-54.1504Q50.5371-54.1504 52.0752-52.6611Q53.6133-51.1719 53.6133-48.877L53.6133-40.625L61.8652-40.625Q64.1113-40.625 65.6006-39.0869Q67.0898-37.5488 67.0898-35.2539Q67.0898-32.959 65.6006-31.4209Q64.1113-29.8828 61.8652-29.8828L53.6133-29.8828L53.6133-21.6309Q53.6133-19.3848 52.0752-17.8955Q50.5371-16.4062 48.1934-16.4062Q45.8984-16.4062 44.3604-17.8955Q42.8223-19.3848 42.8223-21.6309L42.8223-29.8828L34.6191-29.8828Q32.373-29.8828 30.8594-31.4209Q29.3457-32.959 29.3457-35.2539Z"/>
  </g>
  <g id="Bold-S" transform="matrix(1 0 0 1 2292.43 696)">
   <path d="M47.5586 5.46875Q55.957 5.46875 63.3057 2.29492Q70.6543-0.878906 76.2695-6.51855Q81.8848-12.1582 85.083-19.5068Q88.2812-26.8555 88.2812-35.2539Q88.2812-43.6035 85.083-50.9766Q81.8848-58.3496 76.2695-63.9648Q70.6543-69.5801 63.2812-72.7539Q55.9082-75.9277 47.5098-75.9277Q39.1602-75.9277 31.7871-72.7539Q24.4141-69.5801 18.8232-63.9648Q13.2324-58.3496 10.0342-50.9766Q6.83594-43.6035 6.83594-35.2539Q6.83594-26.8555 10.0342-19.5068Q13.2324-12.1582 18.8477-6.51855Q24.4629-0.878906 31.8115 2.29492Q39.1602 5.46875 47.5586 5.46875ZM28.6133-35.2051Q28.6133-37.3047 29.9805-38.6963Q31.3477-40.0879 33.3984-40.0879L42.7246-40.0879L42.7246-49.4141Q42.7246-51.5137 44.0918-52.8564Q45.459-54.1992 47.5586-54.1992Q49.6582-54.1992 51.0254-52.8564Q52.3926-51.5137 52.3926-49.4141L52.3926-40.0879L61.7676-40.0879Q63.8184-40.0879 65.1855-38.6963Q66.5527-37.3047 66.5527-35.2051Q66.5527-33.1543 65.1855-31.7871Q63.8184-30.4199 61.7676-30.4199L52.3926-30.4199L52.3926-21.0449Q52.3926-18.9941 51.0254-17.6514Q49.6582-16.3086 47.5586-16.3086Q45.459-16.3086 44.0918-17.6514Q42.7246-18.9941 42.7246-21.0449L42.7246-30.4199L33.3984-30.4199Q31.3477-30.4199 29.9805-31.7871Q28.6133-33.1543 28.6133-35.2051Z"/>
  </g>
  <g id="Semibold-S" transform="matrix(1 0 0 1 1996.19 696)">
   <path d="M47.0703 4.98047Q55.3711 4.98047 62.6465 1.85547Q69.9219-1.26953 75.4639-6.86035Q81.0059-12.4512 84.1553-19.7266Q87.3047-27.002 87.3047-35.2539Q87.3047-43.5059 84.1553-50.7812Q81.0059-58.0566 75.4395-63.623Q69.873-69.1895 62.5977-72.3389Q55.3223-75.4883 47.0215-75.4883Q38.7695-75.4883 31.4941-72.3389Q24.2188-69.1895 18.6768-63.623Q13.1348-58.0566 9.98535-50.7812Q6.83594-43.5059 6.83594-35.2539Q6.83594-27.002 9.98535-19.7266Q13.1348-12.4512 18.7012-6.86035Q24.2676-1.26953 31.543 1.85547Q38.8184 4.98047 47.0703 4.98047ZM28.0762-35.2051Q28.0762-37.1582 29.3213-38.4277Q30.5664-39.6973 32.5195-39.6973L42.627-39.6973L42.627-49.8047Q42.627-51.7578 43.8721-53.0029Q45.1172-54.248 47.0215-54.248Q49.0234-54.248 50.2686-53.0029Q51.5137-51.7578 51.5137-49.8047L51.5137-39.6973L61.6699-39.6973Q63.5742-39.6973 64.8438-38.4277Q66.1133-37.1582 66.1133-35.2051Q66.1133-33.3008 64.8438-32.0312Q63.5742-30.7617 61.6699-30.7617L51.5137-30.7617L51.5137-20.6543Q51.5137-18.75 50.2686-17.5049Q49.0234-16.2598 47.0215-16.2598Q45.1172-16.2598 43.8721-17.5049Q42.627-18.75 42.627-20.6543L42.627-30.7617L32.5195-30.7617Q30.5664-30.7617 29.3213-32.0312Q28.0762-33.3008 28.0762-35.2051Z"/>
  </g>
  <g id="Medium-S" transform="matrix(1 0 0 1 1699.83 696)">
   <path d="M46.7285 4.63867Q54.9316 4.63867 62.1338 1.51367Q69.3359-1.61133 74.8535-7.12891Q80.3711-12.6465 83.4961-19.8486Q86.6211-27.0508 86.6211-35.2539Q86.6211-43.4082 83.4961-50.6348Q80.3711-57.8613 74.8291-63.3789Q69.2871-68.8965 62.085-71.9971Q54.8828-75.0977 46.6797-75.0977Q38.4766-75.0977 31.2744-71.9971Q24.0723-68.8965 18.5791-63.3789Q13.0859-57.8613 9.96094-50.6348Q6.83594-43.4082 6.83594-35.2539Q6.83594-27.0508 9.96094-19.8486Q13.0859-12.6465 18.6035-7.12891Q24.1211-1.61133 31.3232 1.51367Q38.5254 4.63867 46.7285 4.63867ZM27.6855-35.2051Q27.6855-37.0605 28.8574-38.2324Q30.0293-39.4043 31.8848-39.4043L42.5293-39.4043L42.5293-50.0977Q42.5293-51.9531 43.7012-53.125Q44.873-54.2969 46.6797-54.2969Q48.584-54.2969 49.7314-53.125Q50.8789-51.9531 50.8789-50.0977L50.8789-39.4043L61.6211-39.4043Q63.4277-39.4043 64.624-38.2324Q65.8203-37.0605 65.8203-35.2051Q65.8203-33.3984 64.624-32.2266Q63.4277-31.0547 61.6211-31.0547L50.8789-31.0547L50.8789-20.4102Q50.8789-18.5547 49.7314-17.3828Q48.584-16.2109 46.6797-16.2109Q44.873-16.2109 43.7012-17.3828Q42.5293-18.5547 42.5293-20.4102L42.5293-31.0547L31.8848-31.0547Q30.0293-31.0547 28.8574-32.2266Q27.6855-33.3984 27.6855-35.2051Z"/>
  </g>
  <g id="Regular-S" transform="matrix(1 0 0 1 1403.58 696)">
   <path d="M46.2402 4.15039Q54.3457 4.15039 61.4746 1.07422Q68.6035-2.00195 74.0479-7.4707Q79.4922-12.9395 82.5928-20.0684Q85.6934-27.1973 85.6934-35.2539Q85.6934-43.3105 82.5928-50.4395Q79.4922-57.5684 74.0234-63.0371Q68.5547-68.5059 61.4258-71.582Q54.2969-74.6582 46.1914-74.6582Q38.1348-74.6582 31.0059-71.582Q23.877-68.5059 18.457-63.0371Q13.0371-57.5684 9.93652-50.4395Q6.83594-43.3105 6.83594-35.2539Q6.83594-27.1973 9.93652-20.0684Q13.0371-12.9395 18.4814-7.4707Q23.9258-2.00195 31.0547 1.07422Q38.1836 4.15039 46.2402 4.15039ZM27.1484-35.2051Q27.1484-36.9141 28.2227-37.9883Q29.2969-39.0625 31.0547-39.0625L42.4316-39.0625L42.4316-50.4883Q42.4316-52.1973 43.4814-53.2715Q44.5312-54.3457 46.1914-54.3457Q47.9492-54.3457 48.999-53.2715Q50.0488-52.1973 50.0488-50.4883L50.0488-39.0625L61.5234-39.0625Q63.1836-39.0625 64.2822-37.9883Q65.3809-36.9141 65.3809-35.2051Q65.3809-33.5449 64.2822-32.4951Q63.1836-31.4453 61.5234-31.4453L50.0488-31.4453L50.0488-20.0195Q50.0488-18.3105 48.999-17.2363Q47.9492-16.1621 46.1914-16.1621Q44.5312-16.1621 43.4814-17.2363Q42.4316-18.3105 42.4316-20.0195L42.4316-31.4453L31.0547-31.4453Q29.2969-31.4453 28.2227-32.4951Q27.1484-33.5449 27.1484-35.2051Z"/>
  </g>
  <g id="Light-S" transform="matrix(1 0 0 1 1107.6 696)">
   <path d="M45.5078 3.41797Q53.4668 3.41797 60.4736 0.415039Q67.4805-2.58789 72.8271-7.95898Q78.1738-13.3301 81.2012-20.3125Q84.2285-27.2949 84.2285-35.2539Q84.2285-43.2129 81.2012-50.1953Q78.1738-57.1777 72.8027-62.5488Q67.4316-67.9199 60.4492-70.9229Q53.4668-73.9258 45.459-73.9258Q37.5488-73.9258 30.542-70.9229Q23.5352-67.9199 18.2129-62.5488Q12.8906-57.1777 9.86328-50.1953Q6.83594-43.2129 6.83594-35.2539Q6.83594-27.2949 9.86328-20.3125Q12.8906-13.3301 18.2373-7.95898Q23.584-2.58789 30.5908 0.415039Q37.5977 3.41797 45.5078 3.41797ZM27.1973-35.2051Q27.1973-36.5234 28.0273-37.3535Q28.8574-38.1836 30.1758-38.1836L42.5781-38.1836L42.5781-50.6348Q42.5781-51.9043 43.4082-52.7588Q44.2383-53.6133 45.5078-53.6133Q46.8262-53.6133 47.6562-52.7832Q48.4863-51.9531 48.4863-50.6348L48.4863-38.1836L60.9375-38.1836Q62.207-38.1836 63.0615-37.3535Q63.916-36.5234 63.916-35.2051Q63.916-33.9355 63.0615-33.1299Q62.207-32.3242 60.9375-32.3242L48.4863-32.3242L48.4863-19.873Q48.4863-18.5547 47.6562-17.7246Q46.8262-16.8945 45.5078-16.8945Q44.2383-16.8945 43.4082-17.749Q42.5781-18.6035 42.5781-19.873L42.5781-32.3242L30.1758-32.3242Q28.8574-32.3242 28.0273-33.1299Q27.1973-33.9355 27.1973-35.2051Z"/>
  </g>
  <g id="Thin-S" transform="matrix(1 0 0 1 811.863 696)">
   <path d="M44.5312 2.44141Q52.3438 2.44141 59.1553-0.488281Q65.9668-3.41797 71.1914-8.64258Q76.416-13.8672 79.3457-20.6787Q82.2754-27.4902 82.2754-35.2539Q82.2754-43.0176 79.3457-49.8291Q76.416-56.6406 71.1914-61.8652Q65.9668-67.0898 59.1553-70.0195Q52.3438-72.9492 44.5312-72.9492Q36.7676-72.9492 29.9316-70.0195Q23.0957-67.0898 17.9199-61.8652Q12.7441-56.6406 9.79004-49.8291Q6.83594-43.0176 6.83594-35.2539Q6.83594-27.4902 9.79004-20.6787Q12.7441-13.8672 17.9199-8.64258Q23.0957-3.41797 29.9316-0.488281Q36.7676 2.44141 44.5312 2.44141ZM27.1973-35.2539Q27.1973-36.0352 27.6855-36.5479Q28.1738-37.0605 29.0039-37.0605L42.7734-37.0605L42.7734-50.8301Q42.7734-51.6113 43.2617-52.124Q43.75-52.6367 44.4824-52.6367Q45.2637-52.6367 45.7764-52.1484Q46.2891-51.6602 46.2891-50.8301L46.2891-37.0605L60.1074-37.0605Q60.8887-37.0605 61.377-36.5479Q61.8652-36.0352 61.8652-35.2539Q61.8652-34.5215 61.3525-34.0332Q60.8398-33.5449 60.1074-33.5449L46.2891-33.5449L46.2891-19.7754Q46.2891-18.9453 45.7764-18.457Q45.2637-17.9688 44.4824-17.9688Q43.75-17.9688 43.2617-18.4814Q42.7734-18.9941 42.7734-19.7754L42.7734-33.5449L29.0039-33.5449Q28.2227-33.5449 27.71-34.0332Q27.1973-34.5215 27.1973-35.2539Z"/>
  </g>
  <g id="Ultralight-S" transform="matrix(1 0 0 1 515.649 696)">
   <path d="M44.043 1.95312Q51.7578 1.95312 58.4717-0.927734Q65.1855-3.80859 70.3369-8.95996Q75.4883-14.1113 78.3936-20.8252Q81.2988-27.5391 81.2988-35.2539Q81.2988-42.9688 78.3936-49.6826Q75.4883-56.3965 70.3369-61.5479Q65.1855-66.6992 58.4717-69.5801Q51.7578-72.4609 44.043-72.4609Q36.377-72.4609 29.6387-69.5801Q22.9004-66.6992 17.7734-61.5479Q12.6465-56.3965 9.74121-49.6826Q6.83594-42.9688 6.83594-35.2539Q6.83594-27.5391 9.74121-20.8252Q12.6465-14.1113 17.7734-8.95996Q22.9004-3.80859 29.6387-0.927734Q36.377 1.95312 44.043 1.95312ZM27.2461-35.2539Q27.2461-35.7422 27.5635-36.1084Q27.8809-36.4746 28.418-36.4746L42.8711-36.4746L42.8711-50.9277Q42.8711-51.416 43.2373-51.7822Q43.6035-52.1484 44.043-52.1484Q44.4824-52.1484 44.873-51.8066Q45.2637-51.4648 45.2637-50.9277L45.2637-36.4746L59.7168-36.4746Q60.2539-36.4746 60.5713-36.1084Q60.8887-35.7422 60.8887-35.2539Q60.8887-34.8145 60.5469-34.4727Q60.2051-34.1309 59.7168-34.1309L45.2637-34.1309L45.2637-19.6777Q45.2637-19.1406 44.873-18.7988Q44.4824-18.457 44.043-18.457Q43.6035-18.457 43.2373-18.8232Q42.8711-19.1895 42.8711-19.6777L42.8711-34.1309L28.418-34.1309Q27.9297-34.1309 27.5879-34.4727Q27.2461-34.8145 27.2461-35.2539Z"/>
  </g>
 </g>
</svg>
